<svg preserveAspectRatio="none" width="100%" height="100%" overflow="visible" style="display: block;" viewBox="0 0 23.3324 33.3333" fill="none" xmlns="http://www.w3.org/2000/svg">
<g id="Group">
<path id="Vector" fill-rule="evenodd" clip-rule="evenodd" d="M2.55797 18.5708C3.35964 19.5508 5.39964 23.1817 5.83297 25H17.4996C17.933 23.1833 19.9705 19.5525 20.7721 18.5733C22.1421 16.9022 23.0044 14.8735 23.2571 12.7275C23.5064 10.5856 23.1335 8.41722 22.183 6.48167C21.2234 4.53174 19.7314 2.89329 17.8796 1.75583C16.0115 0.606819 13.8611 -0.00102907 11.668 1.3078e-06C9.47048 1.3078e-06 7.31714 0.608335 5.45631 1.75417C3.60404 2.89119 2.11149 4.52935 1.15131 6.47917C0.200223 8.41397 -0.173559 10.5817 0.0746418 12.7233C0.323808 14.8625 1.18464 16.89 2.55797 18.5708V18.5708ZM12.4996 6.66667L7.49964 14.1667H10.833V19.1667L15.833 11.6667H12.4996V6.66667Z" fill="var(--fill-0, white)"/>
<path id="Vector_2" d="M5.83298 27.5C5.83298 27.279 5.92077 27.067 6.07705 26.9107C6.23333 26.7545 6.44529 26.6667 6.66631 26.6667H16.6663C16.8873 26.6667 17.0993 26.7545 17.2556 26.9107C17.4118 27.067 17.4996 27.279 17.4996 27.5C17.4996 27.721 17.4118 27.933 17.2556 28.0893C17.0993 28.2455 16.8873 28.3333 16.6663 28.3333H6.66631C6.44529 28.3333 6.23333 28.2455 6.07705 28.0893C5.92077 27.933 5.83298 27.721 5.83298 27.5ZM17.4996 30H5.83298V31.6667C5.83298 32.1087 6.00857 32.5326 6.32113 32.8452C6.63369 33.1577 7.05761 33.3333 7.49964 33.3333H15.833C16.275 33.3333 16.6989 33.1577 17.0115 32.8452C17.324 32.5326 17.4996 32.1087 17.4996 31.6667V30Z" fill="var(--fill-0, white)"/>
</g>
</svg>
