<svg preserveAspectRatio="xMidYMid meet" width="100%" height="100%" overflow="visible" style="display: block;" viewBox="0 0 87.4994 125" fill="none" xmlns="http://www.w3.org/2000/svg">
<g id="Group">
<path id="Vector" d="M46.8739 25L28.1239 53.125H40.6239V71.875L59.3739 43.75H46.8739V25Z" fill="var(--fill-0, #8B8B8B)"/>
<path id="Vector_2" fill-rule="evenodd" clip-rule="evenodd" d="M87.2177 47.7281C86.2693 55.7762 83.0343 63.3838 77.8958 69.65C74.8896 73.3219 67.249 83.8125 65.624 90.625H21.874C20.249 83.8063 12.5989 73.3156 9.5927 69.6406C4.45664 63.3715 1.22488 55.7617 0.2802 47.7125C-0.651166 39.6805 0.750535 31.5502 4.3177 24.2938C7.91839 16.982 13.5154 10.8389 20.4615 6.57502C27.4678 2.2695 35.5317 -0.00666882 43.7552 1.46762e-05C51.999 1.46762e-05 60.074 2.28126 67.049 6.58439C73.9932 10.8499 79.5881 16.994 83.1865 24.3063C86.7521 31.5643 88.1516 39.6957 87.2177 47.7281V47.7281ZM61.1958 84.375H26.299C24.9677 81.3031 23.1896 78.225 21.5333 75.6094C19.3539 72.172 16.9835 68.8595 14.4333 65.6875C10.0527 60.3426 7.29595 53.8541 6.48957 46.9906C5.69573 40.1505 6.88915 33.2265 9.92708 27.0469C13.0086 20.7942 17.7975 15.5416 23.7396 11.8969C29.7602 8.19835 36.6893 6.2435 43.7552 6.25001C50.849 6.25001 57.7865 8.21564 63.7708 11.9063C69.7107 15.5518 74.4974 20.8043 77.5771 27.0563C80.6135 33.2375 81.8047 40.1626 81.0083 47.0031C80.199 53.8651 77.4401 60.3513 73.0583 65.6938C70.5069 68.8641 68.1374 72.1767 65.9615 75.6156C64.3052 78.2313 62.5302 81.3031 61.199 84.375H61.1958Z" fill="var(--fill-0, #8B8B8B)"/>
<path id="Vector_3" d="M21.8739 100C21.8739 99.1712 22.2032 98.3764 22.7892 97.7903C23.3753 97.2043 24.1701 96.875 24.9989 96.875H62.4989C63.3277 96.875 64.1226 97.2043 64.7087 97.7903C65.2947 98.3764 65.6239 99.1712 65.6239 100C65.6239 100.829 65.2947 101.624 64.7087 102.21C64.1226 102.796 63.3277 103.125 62.4989 103.125H24.9989C24.1701 103.125 23.3753 102.796 22.7892 102.21C22.2032 101.624 21.8739 100.829 21.8739 100Z" fill="var(--fill-0, #8B8B8B)"/>
<path id="Vector_4" fill-rule="evenodd" clip-rule="evenodd" d="M21.8739 109.375H65.6239V118.75C65.6239 120.408 64.9655 121.997 63.7934 123.169C62.6213 124.342 61.0316 125 59.3739 125H28.1239C26.4663 125 24.8766 124.342 23.7045 123.169C22.5324 121.997 21.8739 120.408 21.8739 118.75V109.375ZM28.1239 115.625H59.3739V118.75H28.1239V115.625Z" fill="var(--fill-0, #8B8B8B)"/>
</g>
</svg>
