<svg preserveAspectRatio="none" width="100%" height="100%" overflow="visible" style="display: block;" viewBox="0 0 31.3852 31.3807" fill="none" xmlns="http://www.w3.org/2000/svg">
<path id="Vector" fill-rule="evenodd" clip-rule="evenodd" d="M10.1078 9.89667L11.6711 5.21167L6.93445 0.478334C7.90112 0.17 8.93445 4.25486e-07 10.0045 4.25486e-07C11.5664 -0.000455177 13.1067 0.364982 14.502 1.06703C15.8973 1.76907 17.1087 2.7882 18.0392 4.04274C18.9697 5.29728 19.5934 6.75235 19.8603 8.29133C20.1272 9.83031 20.0299 11.4104 19.5761 12.905L30.0044 23.3333C30.4422 23.7711 30.7894 24.2907 31.0263 24.8627C31.2632 25.4346 31.3852 26.0476 31.3852 26.6667C31.3852 27.2857 31.2632 27.8987 31.0263 28.4707C30.7894 29.0426 30.4422 29.5623 30.0044 30C29.5667 30.4377 29.047 30.785 28.4751 31.0219C27.9032 31.2588 27.2902 31.3807 26.6711 31.3807C26.0521 31.3807 25.4391 31.2588 24.8671 31.0219C24.2952 30.785 23.7755 30.4377 23.3378 30L12.9095 19.5717C11.163 20.1028 9.30457 20.1457 7.53549 19.6958C5.76642 19.246 4.15422 18.3204 2.87365 17.0196C1.59308 15.7188 0.692998 14.0923 0.270956 12.3163C-0.151085 10.5404 -0.0789821 8.68286 0.479451 6.945L5.21112 11.6667L9.89945 10.105L10.1078 9.89667Z" fill="var(--fill-0, #FFD100)"/>
</svg>
