<svg preserveAspectRatio="none" width="100%" height="100%" overflow="visible" style="display: block;" viewBox="0 0 41 41" fill="none" xmlns="http://www.w3.org/2000/svg">
  <g id="ix:ev-charger-filled">
    <path
      fill-rule="evenodd"
      clip-rule="evenodd"
      d="M10.25 17.0833H20.5V8.54167H10.25V17.0833ZM6.83333 35.875V8.54167C6.83333 7.6029 7.16771 6.80139 7.83646 6.13714C8.50521 5.4729 9.30972 5.14028 10.25 5.13928H20.5C21.4388 5.13928 22.2428 5.47365 22.9121 6.1424C23.5813 6.81115 23.9152 7.61465 23.9137 8.55292V20.5H26.0521C26.8764 20.5 27.461 20.7923 27.8057 21.3768C28.1504 21.9614 28.3227 22.4757 28.3227 22.9197V29.4797C28.3227 29.9632 28.4908 30.3766 28.8268 30.7197C29.1629 31.0628 29.5731 31.2343 30.0575 31.2343C30.5415 31.2343 30.9279 31.0628 31.2166 30.7197C31.5054 30.3766 31.6497 29.9632 31.6497 29.4797V14.9375H30.7917C30.3207 14.9375 29.9221 14.7731 29.5957 14.4442C29.2693 14.1153 29.1054 13.7156 29.1042 13.245V9.82292H29.9583V7.26042H31.6667V9.82292H33.375V7.26042H35.0833V9.82292H35.9375V13.245C35.9375 13.7144 35.7736 14.1138 35.446 14.4432C35.1184 14.7726 34.7207 14.937 34.2529 14.9364H33.358V29.4797C33.358 30.4089 33.0417 31.2047 32.4091 31.8669C31.7765 32.5291 30.9932 32.8607 30.0592 32.8617C29.1271 32.8617 28.3359 32.5301 27.6857 31.8669C27.0354 31.2036 26.7108 30.4079 26.7117 29.4797V22.9646C26.7117 22.8237 26.6472 22.7532 26.5181 22.7532H23.9137V35.875H6.83333ZM14.9479 32.4583L19.2188 25.625H16.6562V20.5L12.3854 27.3333H14.9479V32.4583Z"
      fill="var(--fill-0, #FFD100)"
    />
  </g>
</svg>
